<?xml version="1.0" standalone="no"?>
<!DOCTYPE svg PUBLIC "-//W3C//DTD SVG 20010904//EN"
 "http://www.w3.org/TR/2001/REC-SVG-20010904/DTD/svg10.dtd">
<svg version="1.0" xmlns="http://www.w3.org/2000/svg"
 width="450.000000pt" height="450.000000pt" viewBox="0 0 450.000000 450.000000"
 preserveAspectRatio="xMidYMid meet">
<metadata>
Created by potrace 1.14, written by Peter Selinger 2001-2017
</metadata>
<g transform="translate(0.000000,450.000000) scale(0.100000,-0.100000)"
fill="#000000" stroke="none">
<path d="M316 2969 c-66 -16 -165 -68 -209 -112 -64 -63 -91 -126 -94 -221 -5
-166 75 -298 250 -413 96 -64 105 -69 151 -94 66 -35 199 -124 227 -150 60
-57 74 -89 73 -169 0 -84 -14 -120 -66 -170 -97 -91 -299 -72 -412 37 -51 50
-111 142 -131 204 -17 49 -17 49 -61 49 l-44 0 0 -200 0 -200 29 0 c37 0 81
34 122 92 3 5 32 -7 65 -27 98 -59 166 -75 323 -75 83 0 160 6 197 15 145 34
259 118 310 227 25 55 29 74 29 153 0 75 -5 99 -26 145 -47 102 -159 201 -344
305 -93 53 -210 130 -244 160 -104 93 -119 242 -35 335 20 21 51 44 71 51 43
14 119 6 170 -17 70 -32 187 -169 208 -244 1 -3 7 -18 13 -33 7 -16 12 -33 12
-38 0 -5 23 -9 50 -9 l50 0 0 200 0 200 -36 0 c-29 0 -45 -9 -89 -51 -50 -48
-55 -50 -71 -35 -21 22 -108 67 -159 83 -46 15 -269 16 -329 2z"/>
<path d="M1630 2959 c-198 -68 -324 -201 -389 -414 -29 -92 -36 -155 -36 -305
1 -146 6 -190 35 -285 59 -188 188 -331 358 -395 82 -32 109 -35 282 -35 155
0 156 0 221 32 140 69 239 204 255 348 l5 55 -35 0 c-31 0 -36 -3 -37 -25 -1
-14 -2 -28 -3 -32 -1 -5 -6 -24 -10 -43 -17 -73 -87 -169 -160 -219 -62 -42
-127 -60 -204 -57 -86 4 -149 34 -203 95 -105 118 -140 278 -134 611 5 300 44
453 142 554 71 73 148 91 252 60 96 -28 225 -184 255 -306 6 -26 10 -28 56
-28 l50 0 0 200 0 200 -33 0 c-37 0 -65 -17 -112 -69 l-33 -36 -24 21 c-33 30
-87 59 -145 78 -72 24 -276 21 -353 -5z"/>
<path d="M2510 2937 c0 -22 7 -26 58 -39 l57 -14 3 -632 c2 -501 0 -633 -10
-636 -7 -2 -34 -10 -60 -16 -40 -11 -48 -16 -48 -36 l0 -24 305 0 305 0 0 24
c0 22 -6 26 -57 36 -32 6 -64 13 -70 15 -10 3 -13 67 -13 275 l0 270 58 0 57
-1 29 -67 c165 -377 190 -426 233 -473 63 -68 107 -79 309 -79 l164 0 0 25 c0
21 -7 26 -45 36 -25 6 -52 20 -59 31 -8 11 -52 104 -97 207 -115 259 -138 287
-271 337 -49 18 -57 23 -35 23 41 1 170 47 220 77 57 36 106 89 131 144 16 35
20 66 21 140 0 82 -4 103 -26 150 -51 108 -153 181 -310 221 -77 20 -117 22
-466 26 l-383 5 0 -25z m639 -63 c67 -20 126 -73 159 -144 20 -44 26 -74 28
-150 8 -227 -95 -349 -293 -350 l-63 0 0 330 0 330 58 0 c32 0 82 -7 111 -16z"/>
<path d="M3910 2937 c0 -20 9 -26 60 -40 l60 -17 0 -630 0 -630 -60 -17 c-51
-14 -60 -20 -60 -40 l0 -23 295 0 295 0 0 24 c0 21 -7 26 -57 38 l-58 14 0
634 0 634 30 7 c17 4 42 10 58 13 20 5 27 12 27 31 l0 25 -295 0 -295 0 0 -23z"/>
</g>
</svg>
