<svg aria-hidden="true" style="position:absolute;width:0;height:0;overflow:hidden" xmlns="http://www.w3.org/2000/svg">
  <defs>
    <symbol id="atom" viewBox="0 0 32 32">
      <path fill="#001b4a" style="fill:var(--color1, #001b4a)" d="M21.538 10.409a34.824 34.824 0 0 0-4.062-3.484 20.387 20.387 0 0 1 3.093-1.529c.284-.107.551-.187.818-.267a2.024 2.024 0 0 0 2.74.358c.276-.197.499-.461.647-.767a2.935 2.935 0 0 1 1.707.747c1.058 1.058 1.084 3.191.089 5.849a19.23 19.23 0 0 1 1.2 1.778c.151-.356.311-.702.436-1.049 1.307-3.422 1.138-6.222-.471-7.804a4.7 4.7 0 0 0-2.96-1.28 2.03 2.03 0 0 0-3.221-.611 2.034 2.034 0 0 0-.61 1.091c-.329.098-.658.196-1.004.329a22.891 22.891 0 0 0-4.062 2.089 23.3 23.3 0 0 0-4.071-2.124c-3.422-1.298-6.222-1.138-7.796.471-1.476 1.484-1.716 3.947-.738 6.987a2.033 2.033 0 0 0-.26 2.05 2.026 2.026 0 0 0 1.673 1.212c.284.542.596 1.084.942 1.618a22.757 22.757 0 0 0-2.071 4.071c-1.307 3.413-1.138 6.222.471 7.796a5.016 5.016 0 0 0 3.662 1.343c1.42-.046 2.82-.347 4.133-.889a23.312 23.312 0 0 0 4.071-2.089 22.905 22.905 0 0 0 4.044 2.142 12.56 12.56 0 0 0 3.244.8 2.05 2.05 0 0 0 2.262 1.133 2.043 2.043 0 0 0 1.632-1.933c.236-.146.456-.316.658-.507 1.609-1.609 1.778-4.382.471-7.796a29.042 29.042 0 0 0-6.667-9.733zM11.173 26.747c-2.667 1.022-4.844 1.004-5.911-.071s-1.093-3.218-.062-5.902a20.202 20.202 0 0 1 1.52-3.093 35.764 35.764 0 0 0 4.648 5.164 20.581 20.581 0 0 0 1.627-.933c-.516-.462-1.031-.889-1.529-1.431a30.21 30.21 0 0 1-5.102-6.64 2.033 2.033 0 0 0-.349-3.115 2.043 2.043 0 0 0-1.127-.334c-.667-2.222-.551-3.991.382-4.924a3.317 3.317 0 0 1 2.418-.818c1.199.04 2.382.293 3.493.747 1.073.421 2.107.932 3.093 1.529a34.756 34.756 0 0 0-4.062 3.484c-.391.391-.773.8-1.147 1.209.268.563.564 1.112.889 1.644a35.92 35.92 0 0 1 1.493-1.6 32.346 32.346 0 0 1 4.444-3.707 32.793 32.793 0 0 1 4.4 3.707 32.286 32.286 0 0 1 3.707 4.444 32.83 32.83 0 0 1-3.707 4.444 27.267 27.267 0 0 1-9.12 6.196zm15.307-.08-.142.116a2.02 2.02 0 0 0-3.111.64 11.174 11.174 0 0 1-2.667-.684 19.582 19.582 0 0 1-3.093-1.529 34.66 34.66 0 0 0 4.062-3.484 34.039 34.039 0 0 0 3.484-4.053 20.387 20.387 0 0 1 1.529 3.093c1.013 2.693 1.013 4.844-.062 5.902z"/>
      <path fill="#001b4a" style="fill:var(--color1, #001b4a)" d="M16.463 18.952a2.933 2.933 0 1 0-.94-5.79 2.933 2.933 0 0 0 .94 5.79z"/>
    </symbol>
    <symbol id="certificate" viewBox="0 0 32 32">
      <path fill="#001b4a" style="fill:var(--color1, #001b4a)" d="M28.151 5.503H3.562a1.757 1.757 0 0 0-1.756 1.756v17.564a1.757 1.757 0 0 0 1.756 1.756h13.173l.501-.615.817-1.001-.079-.141H3.563V7.258h24.589v7.517c.667.432 1.26.969 1.756 1.589V7.257a1.757 1.757 0 0 0-1.756-1.756z"/>
      <path fill="#001b4a" style="fill:var(--color1, #001b4a)" d="M6.197 10.772h14.929v1.405H6.197v-1.405zM6.197 14.284h9.66v1.405h-9.66v-1.405zM6.197 20.432h8.782v1.405H6.197v-1.405zM24.164 15.365a5.59 5.59 0 0 0-5.497 6.797 5.583 5.583 0 0 0 1.633 2.864l-1.704 2.081.79 3.17L22.6 26.36c1.017.301 2.1.301 3.118 0l3.214 3.917.79-3.17-1.704-2.081a5.59 5.59 0 0 0 1.366-6.15 5.584 5.584 0 0 0-5.23-3.511h.009zm0 9.379a3.781 3.781 0 0 1-3.459-2.372 3.786 3.786 0 0 1 2.793-5.127 3.785 3.785 0 0 1 4.504 3.715 3.821 3.821 0 0 1-3.837 3.785z"/>
    </symbol>
    <symbol id="chart" viewBox="0 0 35 32">
      <path fill="#001b4a" style="fill:var(--color1, #001b4a)" d="M31.128 1.845H3.891a1.946 1.946 0 0 0-1.946 1.946v21.4a1.946 1.946 0 0 0 1.946 1.946h27.237a1.946 1.946 0 0 0 1.946-1.946v-21.4a1.946 1.946 0 0 0-1.946-1.946zM3.891 25.191v-21.4h27.237v21.4H3.891z"/>
      <path fill="#001b4a" style="fill:var(--color1, #001b4a)" d="M6.809 6.709h5.836v15.564h-1.556V8.265H8.365v14.008H6.809V6.709zM14.591 15.463h5.837v6.809h-1.556v-5.253h-2.724v5.253h-1.556v-6.809zM22.373 12.545h5.837v9.727h-1.556v-8.171H23.93v8.171h-1.556v-9.727z"/>
    </symbol>
    <symbol id="clipboard" viewBox="0 0 32 32">
      <path fill="#001b4a" style="fill:var(--color1, #001b4a)" d="M25.84 4.625h-2.011v1.756h1.756v21.954H6.265V6.381h1.756V4.625H6.265A1.535 1.535 0 0 0 4.509 6.11v22.499a1.495 1.495 0 0 0 1.501 1.484h19.829a1.497 1.497 0 0 0 1.058-.431 1.505 1.505 0 0 0 .443-1.053V6.11a1.495 1.495 0 0 0-1.501-1.484z"/>
      <path fill="#001b4a" style="fill:var(--color1, #001b4a)" d="M22.951 6.671a2.054 2.054 0 0 0-2.046-2.046h-1.581a3.513 3.513 0 0 0-6.806 0h-1.572A2.054 2.054 0 0 0 8.9 6.671v3.223h14.051V6.671zm-1.757 1.466H10.656V6.67a.282.282 0 0 1 .085-.205.282.282 0 0 1 .205-.085h3.223v-.878a1.757 1.757 0 1 1 3.512 0v.878h3.223a.29.29 0 0 1 .29.29v1.467zM9.778 12.528h12.295v1.756H9.778v-1.756zM9.778 16.041h12.295v1.756H9.778v-1.756zM9.778 19.554h12.295v1.756H9.778v-1.756zM9.778 23.066h12.295v1.756H9.778v-1.756z"/>
    </symbol>
    <symbol id="coins" viewBox="0 0 34 32">
      <path fill="#001b4a" style="fill:var(--color1, #001b4a)" d="M25.3 1.525c-3.561 0-7.16 1.26-7.16 3.657V6.7c.639.029 1.277.093 1.909.191V5.182c0-.621 1.995-1.757 5.251-1.757s5.251 1.146 5.251 1.757v9.862c0 .516-1.394 1.375-3.723 1.652v1.909c2.988-.305 5.633-1.528 5.633-3.58V5.182c0-2.396-3.599-3.657-7.161-3.657zM3.819 15.044V5.182c0-.621 1.995-1.757 5.251-1.757s5.251 1.146 5.251 1.757v1.709c.633-.098 1.27-.161 1.909-.191V5.182c0-2.406-3.599-3.666-7.16-3.666s-7.16 1.27-7.16 3.666v9.862c0 2.062 2.645 3.275 5.633 3.59v-1.909c-2.33-.305-3.723-1.165-3.723-1.68z"/>
      <path fill="#001b4a" style="fill:var(--color1, #001b4a)" d="M17.185 7.989c-4.707 0-8.258 1.795-8.258 4.182v11.753c0 2.387 3.552 4.182 8.258 4.182s8.258-1.795 8.258-4.182V12.171c0-2.387-3.552-4.182-8.258-4.182zm6.349 7.322c-.811.955-3.265 1.909-6.349 1.909a13.877 13.877 0 0 1-3.819-.496v1.394a15.6 15.6 0 0 0 3.819.449c2.212.09 4.407-.425 6.349-1.489v2.979c-.811.955-3.265 1.909-6.349 1.909-1.29.01-2.576-.16-3.819-.506v1.394a15.6 15.6 0 0 0 3.819.449c2.212.09 4.407-.425 6.349-1.489V24c0 .907-2.53 2.272-6.349 2.272S10.836 24.907 10.836 24V12.171c0-.907 2.53-2.272 6.349-2.272s6.349 1.365 6.349 2.272v3.141z"/>
    </symbol>
    <symbol id="contract" viewBox="0 0 32 32">
      <path fill="#001b4a" style="fill:var(--color1, #001b4a)" d="M7.39 7.435h14.051V8.84H7.39V7.435zm0 7.025h7.101v1.405H7.39V14.46zm13.505-3.513H7.39v1.405h12.1l1.404-1.405zm-9.296 14.817a2.165 2.165 0 0 0 1.927.724h6.852a.618.618 0 0 0 .615-.615.618.618 0 0 0-.615-.615h-6.852c-.8-.014-.658-.709-.545-.924.147-.253.261-.523.34-.804a1.037 1.037 0 0 0-.541-1.161 1.666 1.666 0 0 0-1.967.454c-.302.312-.722.789-1.124 1.252.249-.974.571-2.224.887-3.442a1.152 1.152 0 0 0-.663-1.427 1.253 1.253 0 0 0-1.559.696c-.379.73-3.383 5.763-3.413 5.814a.606.606 0 0 0-.068.466.629.629 0 0 0 .281.378.613.613 0 0 0 .844-.213c.112-.189 2.51-4.205 3.266-5.546-.569 2.195-1.196 4.639-1.233 4.858a.765.765 0 0 0 .357.851.803.803 0 0 0 .971-.197c.111-.1.318-.338.84-.945.487-.573.985-1.135 1.496-1.687.191-.202.307-.112.195.086a2.012 2.012 0 0 0-.289 1.997H11.6z"/>
      <path fill="#001b4a" style="fill:var(--color1, #001b4a)" d="M24.954 19.286v9.05H3.878V3.747h21.076v4.385l1.168-1.168c.18-.177.377-.336.588-.474V2.869a.881.881 0 0 0-.878-.878H2.999a.881.881 0 0 0-.878.878v26.345a.881.881 0 0 0 .878.878h22.833a.881.881 0 0 0 .878-.878V19.051a2.555 2.555 0 0 1-1.756.235z"/>
      <path fill="#001b4a" style="fill:var(--color1, #001b4a)" d="m30.335 10.65-.459-.459a1.663 1.663 0 0 0-.097-2.127 1.714 1.714 0 0 0-2.415.142L16.365 19.203l-.735 2.759a.203.203 0 0 0 .051.209.207.207 0 0 0 .21.049l2.75-.744 10.268-10.268.434.435a.335.335 0 0 1 .096.231.317.317 0 0 1-.096.231l-4.318 4.318a.703.703 0 1 0 .994.994l4.318-4.318a1.73 1.73 0 0 0 0-2.448v.001z"/>
    </symbol>
    <symbol id="facebook" viewBox="0 0 32 32">
      <path d="M16 .64C7.517.64.64 7.517.64 16S7.517 31.36 16 31.36 31.36 24.483 31.36 16 24.483.64 16 .64zm3.638 10.614h-2.309c-.274 0-.578.36-.578.838v1.667h2.888l-.437 2.378h-2.451v7.138h-2.725v-7.138h-2.472v-2.378h2.472v-1.398c0-2.006 1.392-3.637 3.302-3.637h2.309v2.53z"/>
    </symbol>
    <symbol id="globe" viewBox="0 0 34 32">
      <path d="M0 15.616C0 6.991 7.38 0 16.484 0s16.484 6.992 16.484 15.616c0 8.625-7.38 15.616-16.484 15.616S0 24.24 0 15.616zm9.768-5.848a9.368 9.368 0 0 0 13.246 13.246A9.368 9.368 0 0 0 9.768 9.768zm3.828.689c.646-1.212 1.425-1.933 2.209-2.172v3.422h-2.757c.152-.43.335-.848.548-1.25zm-1.034-.551c-.303.577-.554 1.18-.749 1.802H9.665a8.221 8.221 0 0 1 3.597-2.894c-.263.344-.496.71-.699 1.092zm-1.065 2.972a16 16 0 0 0-.365 2.927H8.217a8.138 8.138 0 0 1 .768-2.927h2.512zm.806 2.927a14.6 14.6 0 0 1 .396-2.927h3.106v2.927h-3.502zm4.673 0v-2.927h3.106c.23.96.362 1.94.395 2.927h-3.5zm-4.277 4.097a14.66 14.66 0 0 1-.395-2.927h3.501v2.927h-3.106zm4.277 0v-2.927h3.502a14.55 14.55 0 0 1-.396 2.927h-3.106zm-3.38 2.421a9.292 9.292 0 0 1-.548-1.25h2.757v3.422c-.783-.24-1.563-.96-2.209-2.172zm-1.034.552c.202.383.436.748.699 1.092a8.228 8.228 0 0 1-3.597-2.894h2.148c.195.622.446 1.225.749 1.802zm-1.431-5.899c.031.985.154 1.965.365 2.927H8.984a8.125 8.125 0 0 1-.768-2.927h2.915zm11.985 4.097a8.224 8.224 0 0 1-3.596 2.894c.263-.344.497-.709.699-1.092.303-.577.554-1.18.749-1.802h2.148zm-6.14 3.422v-3.422h2.757a9.292 9.292 0 0 1-.548 1.25c-.646 1.212-1.425 1.933-2.209 2.172zm6.82-4.593h-2.512a15.93 15.93 0 0 0 .365-2.927h2.915a8.125 8.125 0 0 1-.768 2.927zm0-7.024c.437.919.697 1.912.768 2.927h-2.915a16.098 16.098 0 0 0-.365-2.927h2.512zm-2.828-1.171a10.827 10.827 0 0 0-.749-1.802 7.988 7.988 0 0 0-.699-1.092 8.22 8.22 0 0 1 3.596 2.894h-2.148zm-1.783-1.25c.213.403.396.821.548 1.25h-2.757V8.285c.784.24 1.563.96 2.209 2.172z"/>
    </symbol>
    <symbol id="government" viewBox="0 0 33 32">
      <path fill="#001b4a" style="fill:var(--color1, #001b4a)" d="m3.166 11.703 13.115-7.534 13.115 7.534a.905.905 0 0 0 .904-1.565L16.281 2.079l-14.02 8.059a.902.902 0 0 0-.364 1.255.904.904 0 0 0 1.267.311zM3.618 22.955a.904.904 0 0 0 .905.905H28.04a.904.904 0 1 0 0-1.81h-2.713v-6.666h-1.809v6.666h-6.331v-6.666h-1.809v6.666H9.047v-6.666H7.238v6.666H4.525a.904.904 0 0 0-.905.905zM4.54 12.101h23.517v1.809H4.54v-1.809zM29.848 25.669H2.714a.904.904 0 1 0 0 1.81h27.134a.904.904 0 1 0 0-1.81z"/>
      <path fill="#001b4a" style="fill:var(--color1, #001b4a)" d="M20.034 9.913h2.903l-6.069-3.491a.72.72 0 0 0-.724 0l-6.078 3.491h2.903l3.527-2.026 3.537 2.026z"/>
    </symbol>
    <symbol id="info" viewBox="0 0 32 32">
      <path fill="#001b4a" style="fill:var(--color1, #001b4a)" d="M16 1.867a14.217 14.217 0 0 0-13.139 8.78A14.223 14.223 0 1 0 16 1.867zm-.089 4.693a1.78 1.78 0 0 1 1.744 2.125 1.775 1.775 0 0 1-1.397 1.397 1.778 1.778 0 1 1-.347-3.522zm3.2 18.889h-6.222a1.245 1.245 0 1 1 0-2.488h1.867v-8.178h-1.422a1.245 1.245 0 1 1 0-2.488h3.911v10.667h1.867a1.245 1.245 0 1 1 0 2.488z"/>
    </symbol>
    <symbol id="instagram" viewBox="0 0 32 32">
      <path  d="M20.8 16a4.8 4.8 0 0 1-9.6 0c0-.274.029-.541.078-.8H9.6v6.395c0 .445.36.805.805.805h11.192a.803.803 0 0 0 .803-.805V15.2h-1.678c.05.259.078.526.078.8zM16 19.2a3.199 3.199 0 0 0 2.956-4.427 3.207 3.207 0 0 0-2.958-1.975A3.201 3.201 0 1 0 16 19.2zm3.84-6.56h1.918a.484.484 0 0 0 .482-.479v-1.918a.485.485 0 0 0-.482-.482H19.84a.48.48 0 0 0-.481.482v1.918c.002.264.218.48.482.48zM16 .64A15.356 15.356 0 0 0 .64 16 15.356 15.356 0 0 0 16 31.36 15.36 15.36 0 1 0 16 .64zm8 21.582C24 23.2 23.2 24 22.222 24H9.777c-.978 0-1.778-.8-1.778-1.778V9.777c0-.978.8-1.778 1.778-1.778h12.445c.978 0 1.778.8 1.778 1.778v12.445z"/>
    </symbol>
    <symbol id="logo" viewBox="0 0 93 32">
      <path fill="#feedd5" style="fill:var(--color3, #feedd5);stroke:var(--color1, #001b4a)" stroke="#001b4a" stroke-width=".627" d="m50.1 29.534-.249.053v1.078h12.465v-1.086l-2.809-.51v-8.953h2.105l3.925 7.49c.531 1.006 1.223 1.776 2.082 2.292s1.867.768 3.01.768h5.931v-1.068l-2.108-.536-3.545-6.681-.001-.002c-.722-1.394-2.081-2.332-4.008-2.846a8.555 8.555 0 0 0-.426-.105 15.482 15.482 0 0 0 2.525-.586c1.429-.443 2.611-1.112 3.535-2.014l.003-.003c.949-.951 1.416-2.18 1.416-3.659 0-2.213-1.075-3.932-3.165-5.138-2.082-1.224-5.43-1.812-9.989-1.812H49.85v1.078l2.408.51v21.272l-2.159.458zm27.402.818v.314h9.522v-.965l-1.873-.397V15.235l1.873-.405v-1.174h-9.522v1.174l1.872.405v14.069l-1.872.397v.651zM64.998 17.224c-.997.93-2.384 1.413-4.2 1.413h-1.291V7.694h1.291c1.816 0 3.203.483 4.2 1.413.99.924 1.506 2.26 1.506 4.059s-.516 3.135-1.506 4.059z"/>
      <path fill="#001b4a" style="fill:var(--color1, #001b4a);stroke:var(--color1, #001b4a)" stroke="#001b4a" stroke-width=".627" d="m2.597 30.823.011-.006.01-.007a6.595 6.595 0 0 0 1.275-1.203 7.917 7.917 0 0 0 1.707.965c1.7.744 3.521 1.115 5.461 1.115 2.405 0 4.462-.298 6.164-.903 1.694-.602 2.992-1.423 3.868-2.477l.002-.003c.871-1.072 1.314-2.264 1.314-3.567 0-1.291-.382-2.437-1.148-3.424a9.787 9.787 0 0 0-2.734-2.459c-1.055-.642-2.429-1.373-4.119-2.192-1.44-.701-2.582-1.298-3.428-1.791a8.877 8.877 0 0 1-2.049-1.67c-.515-.626-.767-1.315-.767-2.076 0-1.008.343-1.82 1.025-2.46.69-.648 1.509-.97 2.474-.97 1.181 0 2.206.271 3.088.805l.003.002a7.764 7.764 0 0 1 2.315 2.061l.005.006a9.05 9.05 0 0 1 1.513 2.862l.07.218h2.148V6.556h-1.381l-.059.025a3.411 3.411 0 0 0-.278.155c-.136.08-.324.195-.565.343l-.009.005-.008.006a6.682 6.682 0 0 0-1.279 1.218 9.372 9.372 0 0 0-1.576-.939c-1.589-.766-3.186-1.153-4.789-1.153-2.164 0-4.008.275-5.524.835-1.507.535-2.671 1.276-3.466 2.239l-.001.001c-.767.939-1.154 2.007-1.154 3.193 0 1.468.406 2.76 1.226 3.863l.002.003a10.665 10.665 0 0 0 2.893 2.629c1.11.689 2.552 1.454 4.323 2.296 1.387.679 2.462 1.242 3.228 1.69.75.439 1.364.939 1.847 1.499l.005.006c.486.536.721 1.132.721 1.797 0 1.21-.421 2.151-1.254 2.858-.839.711-1.977 1.083-3.449 1.083-2.502 0-4.526-.946-6.098-2.846a9.831 9.831 0 0 1-1.633-2.902l-.075-.207H.313v7.093h1.381l.059-.025c.051-.022.155-.082.278-.155.136-.081.324-.195.566-.343zm23.588-18.731-.001.002c-1.075 1.917-1.605 4.207-1.605 6.858 0 4.037 1.227 7.194 3.716 9.422 2.482 2.222 5.909 3.313 10.241 3.313 1.753 0 3.351-.337 4.789-1.017l.002-.001c1.458-.7 2.611-1.627 3.449-2.787.864-1.183 1.304-2.46 1.304-3.825v-.314h-1.631v.314c0 1.038-.336 2.03-1.024 2.981l-.003.005c-.665.954-1.549 1.727-2.658 2.318a7.264 7.264 0 0 1-3.424.848c-2.206 0-3.93-.841-5.206-2.528-1.249-1.709-1.904-4.596-1.904-8.729 0-4.067.602-6.938 1.753-8.673 1.185-1.747 2.633-2.584 4.354-2.584 1.181 0 2.206.271 3.088.805l.003.002a7.764 7.764 0 0 1 2.315 2.061l.005.006a9.05 9.05 0 0 1 1.513 2.862l.07.218h2.148V6.556h-1.381l-.059.025a3.411 3.411 0 0 0-.278.155c-.136.08-.324.195-.565.343l-.009.005-.008.006A6.682 6.682 0 0 0 43.9 8.308a9.372 9.372 0 0 0-1.576-.939c-1.588-.766-3.172-1.153-4.749-1.153-2.556 0-4.826.496-6.802 1.497-1.956.981-3.486 2.443-4.586 4.379z"/>
      <path fill="#feedd5" style="fill:var(--color3, #feedd5);stroke:var(--color1, #001b4a)" stroke="#001b4a" stroke-width=".627" d="m89.05 2.999-.003-.004-.003-.004c-.362-.443-.837-.833-1.389-1.151s-1.175-.56-1.827-.713a7.486 7.486 0 0 0-2.329-.176 5.598 5.598 0 0 0-1.842.45 3.645 3.645 0 0 0-1.235.874 10.059 10.059 0 0 0-2.464-.157c-.851.051-1.722.227-2.434.55-.706.32-1.289.801-1.496 1.485-.302.945.434 1.886 1.341 2.467l.004.003.004.003c.924.559 2.034.894 3.165 1.03V9.73h-.744v2.187h9.13V9.73h-.969V7.554c.261-.021.518-.057.767-.107.931-.189 1.731-.579 2.285-1.13l.005-.005c.422-.444.66-.987.668-1.577.009-.593-.215-1.193-.636-1.736z"/>
      <path fill="#001b4a" style="fill:var(--color1, #001b4a)" d="M77.808 11.405c-.056-.184.447-.028.297-.132s.301-.345.445-.213c.1-.246.445-.302.848-.302.079 0 .151.005.223.019.058-.279.424-.492.855-.492.309 0 .575.104.733.265.173-.109.409-.175.661-.175.309 0 .582.095.755.241.157-.265.546-.454 1.006-.454.56 0 1.02.279 1.077.638a1.53 1.53 0 0 1 .151-.009c.258 0 .488.085.625.213.151-.076.903 0 1.104 0 .331 0 .156.737.314.908-.639.265-1.432-.269-2.172-.128-.259-.028-.474-.142-.575-.293-.158.057-.338.09-.525.09-.374 0-.697-.123-.891-.307-.151.217-.489.364-.87.364-.366 0-.69-.137-.855-.34a1.208 1.208 0 0 1-.538.123c-.072 0-.137-.005-.208-.014a.55.55 0 0 1-.266.345c-.848-.175-1.49.539-2.194.203v-.548zm5.521.563c-.287.019-.575.028-.87.028h-.007c.065-.118.244-.208.445-.208.187 0 .352.071.431.175v.005zm-1.883-.01c-.151-.014-.302-.028-.453-.047.008-.08.108-.142.23-.142.129 0 .23.066.23.151 0 .014 0 .024-.007.033v.005zM87.314 2.433c-8.957-.77-7.012 4.491-2.659 3.031 1.998-.671 1.527-2.586 2.659-3.031z"/>
      <path fill="#001b4a" style="fill:var(--color1, #001b4a)" d="M75.994 5.15c6.709-1.572 6.564 2.346 3.092 1.755-1.709-.291-2.074-1.6-3.092-1.755z"/>
      <path fill="#001b4a" style="fill:var(--color1, #001b4a)" d="m81.928 7.933-.145.005c-.516-2.196-2.993-2.365-3-2.37 1.785.169 3.009.981 3.145 2.365z"/>
      <path fill="#001b4a" style="fill:var(--color1, #001b4a)" d="M86.52 5.3c-5.635.51-4.483 3.51-1.943 2.157 1.252-.669 1.189-1.773 1.943-2.157z"/>
      <path fill="#001b4a" style="fill:var(--color1, #001b4a)" d="m81.569 9.385.144.027c1.004-3.164 3.613-3.137 3.62-3.137-1.886.046-3.331 1.097-3.765 3.117v-.007z"/>
      <path fill="#001b4a" style="fill:var(--color1, #001b4a)" d="M85.73 3.765c-4.817.849-3.517 4.955-3.427 7.156l-.585.113c-.152-2.055-1.011-6.748 4.011-7.269z"/>
      <path fill="#3d4d69" style="fill:var(--color4, #3d4d69)" d="M78.256 11.763c-.139-.078.233.01 0 0 .102-.162.336-.643 1.051-.537-.066-.01-.715-.106 0 0 .058-.184 1.349-.142 1.779-.142.299 0-.146-.265 0-.159.168-.071.401-.116.649-.116.299 0 .569.061.744.159.153-.178.54-.301.991-.301.547 0 1.006.184 1.057.424.051-.003.095-.006.146-.006.255 0 .481.055.612.142.153-.052.784-.142.988-.142.248 0 .371.524.371.679-1.225.317-2.832 0-4.349 0-1.618 0-1.714.356-2.989 0h-1.051z"/>
    </symbol>
    <symbol id="store" viewBox="0 0 33 32">
      <path fill="#001b4a" style="fill:var(--color1, #001b4a)" d="M25.326 26.573H14.472v-7.236h-1.809v7.236H7.236v-7.236H5.427v7.236a1.809 1.809 0 0 0 1.809 1.809h18.09a1.809 1.809 0 0 0 1.809-1.809v-7.236h-1.809v7.236zM30.562 11.441l-3.69-7.381a1.81 1.81 0 0 0-1.619-1.004H7.308A1.817 1.817 0 0 0 5.689 4.06l-3.69 7.381a1.812 1.812 0 0 0-.19.814v2.786c-.001.423.146.832.416 1.158a4.22 4.22 0 0 0 3.202 1.447 4.267 4.267 0 0 0 2.713-.968 4.276 4.276 0 0 0 5.426 0 4.276 4.276 0 0 0 5.426 0 4.276 4.276 0 0 0 5.426 0 4.27 4.27 0 0 0 5.906-.471 1.81 1.81 0 0 0 .425-1.158v-2.795a1.81 1.81 0 0 0-.19-.814zm-16.995 1.022v1.375l-.742.977a2.455 2.455 0 0 1-3.085.737 2.444 2.444 0 0 1-.869-.737l-.733-1.013v-1.339l2.343-7.598h3.989l-.904 7.598zm10.854 1.339-.733 1.013a2.455 2.455 0 0 1-3.085.737 2.444 2.444 0 0 1-.869-.737l-.742-1.013v-1.339l-.904-7.598h4.025l2.306 7.598v1.339z"/>
    </symbol>
    <symbol id="students" viewBox="0 0 32 32">
      <path fill="#001b4a" style="fill:var(--color1, #001b4a)" d="M15.911 15.378c2.4 0 4.267-1.956 4.267-4.356s-1.956-4.267-4.356-4.267-4.267 1.956-4.267 4.267c0 2.4 1.956 4.356 4.356 4.356zm-.089-6.845c.089 0 .089 0 0 0 1.422 0 2.578 1.156 2.578 2.578S17.244 13.6 15.822 13.6a2.485 2.485 0 0 1-2.489-2.489c0-1.422 1.156-2.578 2.489-2.578zM29.067 14.844a8.8 8.8 0 0 0-6.222-2.222h-.711a5.931 5.931 0 0 1-.8 1.867c.533-.089.978-.089 1.511-.089a7.39 7.39 0 0 1 4.711 1.422v6.4h1.778v-7.111l-.267-.267zM20.8 6.933c.444-1.067 1.689-1.6 2.844-1.156 1.067.444 1.6 1.689 1.156 2.844-.356.8-1.156 1.333-1.956 1.333-.178 0-.444 0-.622-.089.089.444.089.889.089 1.244v.533c.178 0 .356.089.533.089 2.222 0 4-1.778 4-3.911 0-2.222-1.778-4-3.911-4-1.422 0-2.667.711-3.378 1.956.444.267.889.622 1.244 1.156zM10.667 14.578c-.356-.533-.622-1.156-.8-1.867h-.711a9.146 9.146 0 0 0-6.222 2.133l-.267.267v7.111h1.778v-6.4c1.422-.978 3.022-1.511 4.711-1.422.533 0 1.067.089 1.511.178zM9.156 11.644c.178 0 .356 0 .533-.089v-.533c0-.444 0-.889.089-1.244-.178.089-.444.089-.622.089-1.156 0-2.133-.978-2.133-2.133s.978-2.133 2.133-2.133c.889 0 1.689.533 2.044 1.333.356-.444.889-.889 1.333-1.244-1.156-1.867-3.556-2.489-5.422-1.333S4.622 7.913 5.778 9.779c.711 1.156 1.956 1.867 3.378 1.867zM23.2 20.178l-.178-.267c-1.778-1.956-4.267-3.111-6.933-3.022-2.667-.089-5.244 1.067-7.022 3.022l-.178.267v6.756c0 .8.622 1.511 1.511 1.511h11.378c.8 0 1.511-.711 1.511-1.511v-6.756H23.2zm-1.778 6.489H10.666V20.8c1.422-1.422 3.378-2.133 5.422-2.133 1.956-.089 3.911.711 5.333 2.133v5.867z"/>
    </symbol>
    <symbol id="youtube" viewBox="0 0 32 32">
      <path d="m18.565 15.733-3.594-1.677c-.314-.146-.571.018-.571.365v3.158c0 .347.258.51.571.365l3.592-1.677c.315-.147.315-.387.002-.534zM16 .64C7.517.64.64 7.517.64 16S7.517 31.36 16 31.36 31.36 24.483 31.36 16 24.483.64 16 .64zm0 21.6c-7.862 0-8-.709-8-6.24s.138-6.24 8-6.24 8 .709 8 6.24-.138 6.24-8 6.24z"/>
    </symbol>
<symbol id="menu-open" viewBox="0 0 32 32">
<path fill="#001b4a" style="fill: var(--color1, #001b4a)" d="M6.4 11.733v-2.133h19.2v2.133h-19.2zM6.4 17.067h19.2v-2.133h-19.2v2.133zM6.4 22.4h19.2v-2.133h-19.2v2.133z"></path>
</symbol>
<symbol id="menu-close" viewBox="0 0 32 32">
<path d="M23.733 10.304l-1.504-1.504-5.963 5.963-5.963-5.963-1.504 1.504 5.963 5.963-5.963 5.963 1.504 1.504 5.963-5.963 5.963 5.963 1.504-1.504-5.963-5.963 5.963-5.963z"></path>
</symbol>
</defs>
</svg>
